<svg xmlns="http://www.w3.org/2000/svg" xmlns:xlink="http://www.w3.org/1999/xlink" width="500" zoomAndPan="magnify" viewBox="0 0 375 374.999991" height="500" preserveAspectRatio="xMidYMid meet" version="1.0"><path fill="#040606" d="M 212.839844 188.347656 L 255.585938 145.585938 C 262.578125 138.59375 262.578125 127.238281 255.585938 120.246094 C 248.59375 113.253906 237.253906 113.253906 230.261719 120.246094 L 187.5 163.007812 L 144.753906 120.246094 C 137.746094 113.253906 126.417969 113.253906 119.414062 120.246094 C 112.421875 127.238281 112.421875 138.582031 119.414062 145.574219 L 162.160156 188.332031 L 119.414062 231.09375 C 112.421875 238.085938 112.421875 249.425781 119.414062 256.417969 C 122.917969 259.910156 127.5 261.667969 132.082031 261.667969 C 136.667969 261.667969 141.25 259.910156 144.753906 256.417969 L 187.5 213.660156 L 230.261719 256.417969 C 233.761719 259.910156 238.347656 261.667969 242.929688 261.667969 C 247.511719 261.667969 252.097656 259.910156 255.585938 256.417969 C 262.578125 249.425781 262.578125 238.085938 255.585938 231.09375 L 212.839844 188.347656 " fill-opacity="1" fill-rule="nonzero"/></svg>