<svg xmlns="http://www.w3.org/2000/svg" xmlns:xlink="http://www.w3.org/1999/xlink" width="500" zoomAndPan="magnify" viewBox="0 0 375 374.999991" height="500" preserveAspectRatio="xMidYMid meet" version="1.0"><defs><clipPath id="7122828ba1"><path d="M 9 34 L 367 34 L 367 284.503906 L 9 284.503906 Z M 9 34 " clip-rule="nonzero"/></clipPath></defs><g clip-path="url(#7122828ba1)"><path fill="#0fb2f2" d="M 124.769531 133.214844 C 87.175781 44.332031 217.992188 -9.375 253.972656 79.984375 C 281.992188 164.136719 163.8125 212.65625 124.769531 133.214844 Z M 287.273438 173.207031 C 362.671875 169.976562 353.085938 58.847656 278.179688 68.75 C 278.964844 70.769531 279.683594 72.816406 280.332031 74.886719 C 280.976562 76.957031 281.554688 79.046875 282.0625 81.15625 C 282.570312 83.261719 283.007812 85.386719 283.371094 87.523438 C 283.738281 89.664062 284.03125 91.8125 284.25 93.96875 C 284.472656 96.128906 284.621094 98.289062 284.695312 100.457031 C 284.769531 102.625 284.773438 104.792969 284.703125 106.960938 C 284.632812 109.128906 284.488281 111.292969 284.273438 113.449219 C 284.058594 115.609375 283.769531 117.757812 283.410156 119.898438 C 283.050781 122.035156 282.621094 124.160156 282.117188 126.269531 C 281.613281 128.382812 281.042969 130.472656 280.398438 132.542969 C 279.753906 134.613281 279.042969 136.664062 278.261719 138.6875 C 277.480469 140.710938 276.632812 142.707031 275.71875 144.671875 C 274.804688 146.640625 273.824219 148.574219 272.78125 150.472656 C 271.734375 152.375 270.628906 154.238281 269.457031 156.066406 C 268.289062 157.890625 267.058594 159.675781 265.769531 161.421875 C 264.480469 163.164062 263.132812 164.863281 261.730469 166.519531 C 265.625 168.722656 269.738281 170.390625 274.066406 171.523438 C 278.398438 172.65625 282.800781 173.21875 287.273438 173.207031 Z M 89.058594 173.207031 C 93.535156 173.21875 97.9375 172.65625 102.269531 171.523438 C 106.597656 170.390625 110.710938 168.722656 114.605469 166.519531 C 113.203125 164.863281 111.855469 163.164062 110.566406 161.421875 C 109.277344 159.675781 108.046875 157.890625 106.875 156.066406 C 105.707031 154.238281 104.597656 152.375 103.554688 150.472656 C 102.511719 148.574219 101.53125 146.640625 100.617188 144.671875 C 99.699219 142.707031 98.851562 140.710938 98.074219 138.6875 C 97.292969 136.664062 96.582031 134.613281 95.9375 132.542969 C 95.292969 130.472656 94.722656 128.382812 94.21875 126.269531 C 93.714844 124.160156 93.285156 122.035156 92.925781 119.898438 C 92.566406 117.757812 92.277344 115.609375 92.0625 113.449219 C 91.847656 111.292969 91.703125 109.128906 91.632812 106.960938 C 91.5625 104.792969 91.566406 102.625 91.640625 100.457031 C 91.714844 98.289062 91.863281 96.128906 92.085938 93.96875 C 92.304688 91.8125 92.597656 89.664062 92.960938 87.523438 C 93.328125 85.386719 93.765625 83.261719 94.273438 81.15625 C 94.777344 79.046875 95.355469 76.957031 96.003906 74.886719 C 96.652344 72.816406 97.371094 70.769531 98.15625 68.75 C 23.199219 58.859375 13.710938 170.007812 89.058594 173.207031 Z M 244.074219 200.222656 C 229.335938 200.28125 191.492188 200.179688 177.332031 200.222656 L 132.261719 200.222656 C 130.425781 200.222656 128.597656 200.308594 126.773438 200.488281 C 124.949219 200.664062 123.140625 200.933594 121.339844 201.289062 C 119.542969 201.644531 117.765625 202.089844 116.011719 202.617188 C 114.257812 203.148438 112.53125 203.765625 110.839844 204.464844 C 109.144531 205.164062 107.488281 205.945312 105.871094 206.808594 C 104.253906 207.667969 102.683594 208.609375 101.15625 209.625 C 99.632812 210.640625 98.160156 211.730469 96.742188 212.894531 C 95.324219 214.054688 93.964844 215.28125 92.667969 216.578125 C 91.371094 217.871094 90.140625 219.226562 88.976562 220.640625 C 87.808594 222.058594 86.71875 223.527344 85.699219 225.050781 C 84.675781 226.570312 83.734375 228.140625 82.867188 229.757812 C 82 231.371094 81.214844 233.027344 80.511719 234.71875 C 79.808594 236.410156 79.191406 238.132812 78.65625 239.886719 C 78.121094 241.640625 77.671875 243.414062 77.3125 245.210938 C 76.953125 247.007812 76.679688 248.820312 76.5 250.644531 C 76.316406 252.46875 76.222656 254.296875 76.21875 256.128906 L 76.21875 284.214844 L 300.25 284.214844 L 300.113281 256.128906 C 300.113281 254.296875 300.019531 252.46875 299.835938 250.644531 C 299.652344 248.820312 299.382812 247.007812 299.023438 245.210938 C 298.660156 243.414062 298.214844 241.640625 297.679688 239.886719 C 297.144531 238.132812 296.527344 236.410156 295.824219 234.71875 C 295.117188 233.027344 294.332031 231.371094 293.46875 229.757812 C 292.601562 228.140625 291.65625 226.570312 290.636719 225.050781 C 289.617188 223.527344 288.523438 222.058594 287.359375 220.640625 C 286.195312 219.226562 284.964844 217.871094 283.667969 216.578125 C 282.367188 215.28125 281.011719 214.054688 279.59375 212.894531 C 278.175781 211.730469 276.703125 210.644531 275.175781 209.625 C 273.652344 208.609375 272.082031 207.667969 270.464844 206.808594 C 268.847656 205.945312 267.191406 205.164062 265.496094 204.464844 C 263.800781 203.765625 262.078125 203.148438 260.324219 202.617188 C 258.570312 202.089844 256.792969 201.644531 254.996094 201.289062 C 253.195312 200.933594 251.386719 200.664062 249.5625 200.488281 C 247.738281 200.308594 245.90625 200.222656 244.074219 200.222656 Z M 366.855469 256.128906 C 366.847656 255.148438 366.816406 254.171875 366.757812 253.191406 C 366.699219 252.210938 366.617188 251.238281 366.507812 250.261719 C 366.398438 249.289062 366.265625 248.316406 366.105469 247.347656 C 365.945312 246.382812 365.761719 245.417969 365.550781 244.460938 C 365.34375 243.503906 365.109375 242.550781 364.851562 241.605469 C 364.589844 240.660156 364.308594 239.722656 364 238.792969 C 363.691406 237.859375 363.363281 236.9375 363.007812 236.023438 C 362.652344 235.109375 362.273438 234.207031 361.871094 233.3125 C 361.46875 232.417969 361.042969 231.535156 360.59375 230.664062 C 360.144531 229.792969 359.675781 228.933594 359.179688 228.085938 C 358.6875 227.238281 358.171875 226.402344 357.636719 225.582031 C 357.101562 224.761719 356.542969 223.957031 355.964844 223.164062 C 355.386719 222.375 354.789062 221.597656 354.171875 220.835938 C 353.550781 220.074219 352.914062 219.332031 352.257812 218.605469 C 351.601562 217.875 350.925781 217.167969 350.230469 216.472656 C 349.535156 215.78125 348.824219 215.109375 348.09375 214.453125 C 347.367188 213.796875 346.621094 213.160156 345.859375 212.542969 C 345.097656 211.925781 344.320312 211.332031 343.527344 210.753906 C 342.734375 210.179688 341.925781 209.625 341.101562 209.089844 C 340.28125 208.554688 339.445312 208.042969 338.597656 207.550781 C 337.75 207.058594 336.886719 206.59375 336.015625 206.144531 C 335.140625 205.699219 334.257812 205.277344 333.363281 204.875 C 332.46875 204.476562 331.5625 204.097656 330.648438 203.746094 C 329.734375 203.394531 328.8125 203.0625 327.878906 202.757812 C 326.949219 202.453125 326.007812 202.171875 325.0625 201.914062 C 324.117188 201.660156 323.164062 201.429688 322.207031 201.222656 C 321.246094 201.015625 320.285156 200.832031 319.316406 200.675781 C 318.347656 200.519531 317.378906 200.386719 316.402344 200.28125 C 315.429688 200.171875 314.453125 200.09375 313.472656 200.035156 C 312.492188 199.980469 311.515625 199.949219 310.535156 199.945312 C 309.554688 199.941406 308.574219 199.960938 307.59375 200.007812 C 306.613281 200.054688 305.636719 200.125 304.660156 200.222656 C 308.183594 203.972656 311.320312 208.023438 314.074219 212.367188 C 316.832031 216.714844 319.152344 221.28125 321.042969 226.066406 C 322.929688 230.851562 324.351562 235.773438 325.308594 240.828125 C 326.265625 245.882812 326.738281 250.984375 326.730469 256.128906 L 326.996094 284.21875 L 366.988281 284.21875 Z M 9.480469 256.128906 L 9.347656 284.21875 L 49.46875 284.21875 L 49.46875 256.128906 C 49.472656 250.980469 49.957031 245.878906 50.925781 240.820312 C 51.894531 235.761719 53.328125 230.839844 55.230469 226.054688 C 57.132812 221.269531 59.464844 216.703125 62.230469 212.359375 C 64.992188 208.015625 68.140625 203.96875 71.671875 200.222656 C 70.695312 200.125 69.71875 200.054688 68.742188 200.007812 C 67.761719 199.960938 66.78125 199.941406 65.800781 199.945312 C 64.820312 199.949219 63.839844 199.980469 62.863281 200.035156 C 61.882812 200.09375 60.90625 200.171875 59.933594 200.28125 C 58.957031 200.386719 57.988281 200.519531 57.019531 200.675781 C 56.050781 200.832031 55.085938 201.015625 54.128906 201.222656 C 53.171875 201.429688 52.21875 201.660156 51.273438 201.914062 C 50.328125 202.171875 49.386719 202.453125 48.457031 202.757812 C 47.523438 203.0625 46.601562 203.394531 45.6875 203.746094 C 44.773438 204.097656 43.867188 204.476562 42.972656 204.875 C 42.078125 205.277344 41.195312 205.699219 40.320312 206.144531 C 39.449219 206.59375 38.585938 207.058594 37.738281 207.550781 C 36.890625 208.042969 36.054688 208.554688 35.230469 209.089844 C 34.410156 209.625 33.601562 210.179688 32.808594 210.753906 C 32.015625 211.332031 31.238281 211.925781 30.476562 212.542969 C 29.714844 213.160156 28.96875 213.796875 28.238281 214.453125 C 27.511719 215.109375 26.800781 215.78125 26.105469 216.472656 C 25.410156 217.167969 24.734375 217.875 24.078125 218.605469 C 23.421875 219.332031 22.78125 220.074219 22.164062 220.835938 C 21.546875 221.597656 20.949219 222.371094 20.371094 223.164062 C 19.792969 223.957031 19.234375 224.761719 18.699219 225.582031 C 18.160156 226.402344 17.648438 227.238281 17.152344 228.085938 C 16.660156 228.933594 16.191406 229.792969 15.742188 230.664062 C 15.292969 231.535156 14.867188 232.417969 14.464844 233.3125 C 14.0625 234.207031 13.683594 235.109375 13.328125 236.023438 C 12.972656 236.9375 12.640625 237.859375 12.335938 238.792969 C 12.027344 239.722656 11.742188 240.660156 11.484375 241.605469 C 11.226562 242.550781 10.992188 243.503906 10.78125 244.460938 C 10.574219 245.417969 10.390625 246.382812 10.230469 247.347656 C 10.070312 248.316406 9.9375 249.289062 9.828125 250.261719 C 9.71875 251.234375 9.636719 252.210938 9.578125 253.191406 C 9.519531 254.167969 9.488281 255.148438 9.480469 256.128906 Z M 9.480469 256.128906 " fill-opacity="1" fill-rule="nonzero"/></g></svg>