<svg xmlns="http://www.w3.org/2000/svg" xmlns:xlink="http://www.w3.org/1999/xlink" width="500" zoomAndPan="magnify" viewBox="0 0 375 374.999991" height="500" preserveAspectRatio="xMidYMid meet" version="1.0"><defs><clipPath id="e685fd819f"><path d="M 18.039062 37.5 L 357 37.5 L 357 347.25 L 18.039062 347.25 Z M 18.039062 37.5 " clip-rule="nonzero"/></clipPath></defs><g clip-path="url(#e685fd819f)"><path fill="#0fb2f2" d="M 238.921875 37.46875 L 318.671875 37.46875 C 329.207031 37.46875 338.769531 41.757812 345.695312 48.699219 C 352.621094 55.625 356.925781 65.207031 356.925781 75.722656 L 356.925781 179.191406 C 356.925781 189.722656 352.636719 199.285156 345.695312 206.214844 C 338.769531 213.140625 329.191406 217.445312 318.671875 217.445312 L 238.921875 217.445312 C 228.390625 217.445312 218.828125 213.140625 211.902344 206.214844 C 204.976562 199.285156 200.667969 189.722656 200.667969 179.191406 L 200.667969 75.722656 C 200.667969 65.191406 204.976562 55.625 211.902344 48.699219 C 218.828125 41.773438 228.390625 37.46875 238.921875 37.46875 Z M 56.375 125.445312 L 136.125 125.445312 C 142.269531 125.445312 147.863281 122.921875 151.914062 118.871094 C 155.964844 114.804688 158.492188 109.226562 158.492188 103.078125 L 158.492188 75.722656 C 158.492188 69.574219 155.964844 63.984375 151.914062 59.929688 C 147.847656 55.863281 142.253906 53.355469 136.125 53.355469 L 56.375 53.355469 C 50.226562 53.355469 44.632812 55.878906 40.582031 59.929688 C 36.515625 64 34.003906 69.574219 34.003906 75.722656 L 34.003906 103.078125 C 34.003906 109.226562 36.53125 114.820312 40.582031 118.871094 C 44.632812 122.921875 50.226562 125.445312 56.375 125.445312 Z M 136.125 141.332031 L 56.375 141.332031 C 45.839844 141.332031 36.277344 137.027344 29.351562 130.101562 C 22.425781 123.175781 18.121094 113.59375 18.121094 103.078125 L 18.121094 75.722656 C 18.121094 65.191406 22.410156 55.625 29.351562 48.699219 C 36.277344 41.773438 45.855469 37.46875 56.375 37.46875 L 136.125 37.46875 C 146.65625 37.46875 156.21875 41.773438 163.144531 48.699219 C 170.074219 55.625 174.378906 65.207031 174.378906 75.722656 L 174.378906 103.078125 C 174.378906 113.613281 170.074219 123.175781 163.144531 130.101562 C 156.21875 137.027344 146.640625 141.332031 136.125 141.332031 Z M 56.375 331.652344 L 136.125 331.652344 C 142.269531 331.652344 147.863281 329.125 151.914062 325.074219 C 155.980469 321.023438 158.492188 315.433594 158.492188 309.285156 L 158.492188 205.816406 C 158.492188 199.667969 155.980469 194.074219 151.914062 190.023438 C 147.847656 185.957031 142.269531 183.449219 136.125 183.449219 L 56.375 183.449219 C 50.226562 183.449219 44.632812 185.972656 40.582031 190.023438 C 36.515625 194.089844 34.003906 199.667969 34.003906 205.816406 L 34.003906 309.285156 C 34.003906 315.433594 36.53125 321.023438 40.582031 325.074219 C 44.632812 329.140625 50.226562 331.652344 56.375 331.652344 Z M 136.125 347.539062 L 56.375 347.539062 C 45.839844 347.539062 36.277344 343.234375 29.351562 336.304688 C 22.425781 329.378906 18.121094 319.800781 18.121094 309.285156 L 18.121094 205.816406 C 18.121094 195.285156 22.410156 185.71875 29.351562 178.792969 C 36.277344 171.867188 45.855469 167.5625 56.375 167.5625 L 136.125 167.5625 C 146.65625 167.5625 156.21875 171.867188 163.144531 178.792969 C 170.074219 185.71875 174.378906 195.285156 174.378906 205.816406 L 174.378906 309.285156 C 174.378906 319.816406 170.074219 329.378906 163.144531 336.304688 C 156.21875 343.234375 146.65625 347.539062 136.125 347.539062 Z M 238.941406 243.671875 L 318.6875 243.671875 C 329.222656 243.671875 338.785156 247.976562 345.710938 254.90625 C 352.636719 261.832031 356.945312 271.410156 356.945312 281.925781 L 356.945312 309.285156 C 356.945312 319.816406 352.636719 329.378906 345.710938 336.304688 C 338.785156 343.234375 329.207031 347.539062 318.6875 347.539062 L 238.941406 347.539062 C 228.40625 347.539062 218.84375 343.234375 211.917969 336.304688 C 204.992188 329.363281 200.683594 319.800781 200.683594 309.285156 L 200.683594 281.925781 C 200.683594 271.394531 204.992188 261.832031 211.917969 254.90625 C 218.84375 247.976562 228.40625 243.671875 238.941406 243.671875 Z M 318.6875 259.558594 L 238.941406 259.558594 C 232.792969 259.558594 227.199219 262.085938 223.148438 266.136719 C 219.082031 270.203125 216.570312 275.78125 216.570312 281.925781 L 216.570312 309.285156 C 216.570312 315.433594 219.097656 321.023438 223.148438 325.074219 C 227.214844 329.140625 232.792969 331.652344 238.941406 331.652344 L 318.6875 331.652344 C 324.835938 331.652344 330.429688 329.125 334.480469 325.074219 C 338.546875 321.007812 341.058594 315.433594 341.058594 309.285156 L 341.058594 281.925781 C 341.058594 275.78125 338.53125 270.1875 334.480469 266.136719 C 330.414062 262.085938 324.835938 259.558594 318.6875 259.558594 Z M 318.6875 53.355469 L 238.941406 53.355469 C 232.792969 53.355469 227.199219 55.878906 223.148438 59.929688 C 219.082031 63.984375 216.570312 69.574219 216.570312 75.722656 L 216.570312 179.191406 C 216.570312 185.339844 219.097656 190.929688 223.148438 194.980469 C 227.214844 199.046875 232.792969 201.558594 238.941406 201.558594 L 318.6875 201.558594 C 324.835938 201.558594 330.429688 199.03125 334.480469 194.980469 C 338.546875 190.914062 341.058594 185.339844 341.058594 179.191406 L 341.058594 75.722656 C 341.058594 69.574219 338.53125 63.984375 334.480469 59.929688 C 330.414062 55.863281 324.835938 53.355469 318.6875 53.355469 Z M 318.6875 53.355469 " fill-opacity="1" fill-rule="nonzero"/></g></svg>