<svg xmlns="http://www.w3.org/2000/svg" xmlns:xlink="http://www.w3.org/1999/xlink" width="1080" zoomAndPan="magnify" viewBox="0 0 810 809.999993" height="1080" preserveAspectRatio="xMidYMid meet" version="1.0"><path fill="#545454" d="M 213.644531 258.523438 C 213.648438 255.621094 213.722656 252.726562 213.867188 249.828125 C 214.011719 246.933594 214.230469 244.042969 214.515625 241.15625 C 214.800781 238.273438 215.160156 235.394531 215.585938 232.527344 C 216.015625 229.660156 216.511719 226.804688 217.082031 223.960938 C 217.648438 221.117188 218.285156 218.289062 218.992188 215.476562 C 219.699219 212.664062 220.472656 209.871094 221.316406 207.097656 C 222.160156 204.324219 223.070312 201.570312 224.050781 198.84375 C 225.027344 196.113281 226.074219 193.410156 227.183594 190.730469 C 228.292969 188.050781 229.46875 185.402344 230.710938 182.78125 C 231.953125 180.160156 233.257812 177.570312 234.625 175.015625 C 235.992188 172.457031 237.421875 169.9375 238.914062 167.449219 C 240.402344 164.964844 241.957031 162.515625 243.566406 160.105469 C 245.179688 157.695312 246.847656 155.324219 248.574219 152.996094 C 250.304688 150.667969 252.085938 148.382812 253.925781 146.140625 C 255.765625 143.898438 257.660156 141.703125 259.605469 139.554688 C 261.554688 137.40625 263.550781 135.308594 265.601562 133.257812 C 267.652344 131.207031 269.753906 129.207031 271.898438 127.261719 C 274.046875 125.3125 276.242188 123.417969 278.484375 121.578125 C 280.726562 119.738281 283.007812 117.953125 285.339844 116.226562 C 287.667969 114.5 290.035156 112.828125 292.445312 111.21875 C 294.855469 109.605469 297.304688 108.054688 299.792969 106.5625 C 302.277344 105.070312 304.800781 103.640625 307.355469 102.273438 C 309.914062 100.90625 312.5 99.601562 315.121094 98.359375 C 317.742188 97.117188 320.390625 95.941406 323.070312 94.828125 C 325.746094 93.71875 328.453125 92.671875 331.179688 91.695312 C 333.910156 90.714844 336.660156 89.804688 339.4375 88.960938 C 342.210938 88.117188 345.003906 87.339844 347.816406 86.636719 C 350.628906 85.929688 353.457031 85.289062 356.296875 84.722656 C 359.140625 84.152344 361.996094 83.65625 364.867188 83.226562 C 367.734375 82.800781 370.609375 82.441406 373.496094 82.152344 C 376.378906 81.867188 379.269531 81.652344 382.167969 81.503906 C 385.0625 81.359375 387.960938 81.285156 390.859375 81.28125 C 625.09375 89.566406 625.554688 426.734375 391.460938 435.734375 C 388.554688 435.742188 385.652344 435.675781 382.75 435.539062 C 379.847656 435.40625 376.949219 435.199219 374.054688 434.917969 C 371.164062 434.640625 368.28125 434.292969 365.40625 433.871094 C 362.53125 433.453125 359.667969 432.960938 356.816406 432.402344 C 353.964844 431.839844 351.128906 431.210938 348.308594 430.511719 C 345.488281 429.8125 342.6875 429.042969 339.90625 428.203125 C 337.121094 427.367188 334.363281 426.460938 331.625 425.488281 C 328.886719 424.515625 326.175781 423.476562 323.488281 422.371094 C 320.800781 421.261719 318.144531 420.089844 315.511719 418.855469 C 312.882812 417.617188 310.285156 416.316406 307.722656 414.953125 C 305.15625 413.585938 302.625 412.160156 300.132812 410.671875 C 297.636719 409.183594 295.179688 407.632812 292.761719 406.023438 C 290.339844 404.414062 287.964844 402.746094 285.625 401.019531 C 283.289062 399.292969 280.996094 397.507812 278.746094 395.667969 C 276.496094 393.828125 274.292969 391.9375 272.136719 389.988281 C 269.980469 388.039062 267.875 386.042969 265.816406 383.992188 C 263.757812 381.9375 261.75 379.839844 259.796875 377.6875 C 257.839844 375.539062 255.941406 373.34375 254.09375 371.101562 C 252.246094 368.855469 250.457031 366.570312 248.722656 364.238281 C 246.988281 361.90625 245.308594 359.535156 243.691406 357.121094 C 242.074219 354.707031 240.515625 352.257812 239.019531 349.765625 C 237.523438 347.277344 236.085938 344.75 234.710938 342.191406 C 233.339844 339.628906 232.03125 337.035156 230.785156 334.410156 C 229.539062 331.785156 228.355469 329.132812 227.242188 326.449219 C 226.125 323.765625 225.078125 321.058594 224.09375 318.324219 C 223.113281 315.589844 222.195312 312.832031 221.351562 310.050781 C 220.503906 307.273438 219.722656 304.472656 219.015625 301.65625 C 218.304688 298.839844 217.664062 296.003906 217.09375 293.15625 C 216.523438 290.308594 216.023438 287.445312 215.597656 284.570312 C 215.167969 281.699219 214.808594 278.816406 214.519531 275.925781 C 214.230469 273.03125 214.015625 270.136719 213.867188 267.234375 C 213.722656 264.332031 213.648438 261.429688 213.644531 258.523438 Z M 570.226562 435.816406 C 569.054688 435.097656 567.835938 434.464844 566.570312 433.921875 C 565.304688 433.375 564.007812 432.925781 562.679688 432.566406 C 561.347656 432.210938 560 431.949219 558.632812 431.785156 C 557.265625 431.621094 555.894531 431.558594 554.515625 431.589844 C 553.140625 431.625 551.773438 431.757812 550.414062 431.988281 C 549.058594 432.21875 547.722656 432.546875 546.414062 432.96875 C 545.101562 433.390625 543.828125 433.90625 542.59375 434.511719 C 541.355469 435.117188 540.167969 435.808594 539.03125 436.585938 C 536.394531 438.730469 533.710938 440.8125 530.984375 442.839844 C 528.257812 444.867188 525.484375 446.832031 522.671875 448.742188 C 519.859375 450.648438 517.007812 452.496094 514.117188 454.277344 C 511.222656 456.0625 508.296875 457.785156 505.328125 459.441406 C 502.363281 461.101562 499.363281 462.695312 496.328125 464.222656 C 493.292969 465.753906 490.226562 467.214844 487.128906 468.613281 C 484.03125 470.011719 480.902344 471.339844 477.75 472.601562 C 474.59375 473.863281 471.414062 475.058594 468.207031 476.183594 C 465 477.308594 461.769531 478.363281 458.519531 479.351562 C 455.265625 480.335938 451.996094 481.253906 448.703125 482.097656 C 445.410156 482.945312 442.101562 483.71875 438.777344 484.421875 C 435.453125 485.125 432.113281 485.753906 428.761719 486.3125 C 425.410156 486.871094 422.046875 487.359375 418.675781 487.773438 C 415.300781 488.1875 411.921875 488.527344 408.535156 488.796875 C 405.148438 489.066406 401.753906 489.261719 398.359375 489.382812 C 394.964844 489.507812 391.566406 489.554688 388.167969 489.53125 C 384.769531 489.507812 381.375 489.410156 377.980469 489.242188 C 374.585938 489.070312 371.195312 488.828125 367.8125 488.511719 C 364.429688 488.195312 361.054688 487.804688 357.6875 487.34375 C 354.320312 486.882812 350.964844 486.347656 347.621094 485.742188 C 344.277344 485.136719 340.949219 484.460938 337.632812 483.710938 C 334.320312 482.960938 331.023438 482.140625 327.742188 481.25 C 324.464844 480.359375 321.203125 479.394531 317.964844 478.363281 C 314.730469 477.332031 311.515625 476.230469 308.324219 475.0625 C 305.132812 473.890625 301.96875 472.652344 298.832031 471.347656 C 295.695312 470.039062 292.589844 468.667969 289.511719 467.226562 C 286.433594 465.785156 283.386719 464.28125 280.375 462.707031 C 277.359375 461.136719 274.382812 459.5 271.441406 457.800781 C 268.496094 456.101562 265.59375 454.339844 262.726562 452.515625 C 259.859375 450.6875 257.035156 448.804688 254.246094 446.855469 C 251.460938 444.910156 248.71875 442.902344 246.019531 440.839844 C 243.320312 438.773438 240.667969 436.652344 238.0625 434.472656 C 236.09375 433.570312 234.046875 432.914062 231.917969 432.503906 C 229.792969 432.097656 227.644531 431.953125 225.484375 432.066406 C 223.320312 432.179688 221.203125 432.550781 219.128906 433.175781 C 217.058594 433.804688 215.089844 434.671875 213.226562 435.777344 C 207.78125 439.402344 202.453125 443.1875 197.238281 447.136719 C 192.027344 451.089844 186.9375 455.195312 181.980469 459.460938 C 177.019531 463.726562 172.195312 468.140625 167.507812 472.699219 C 162.820312 477.261719 158.277344 481.964844 153.878906 486.804688 C 149.480469 491.648438 145.234375 496.617188 141.144531 501.722656 C 137.050781 506.824219 133.121094 512.050781 129.351562 517.394531 C 125.578125 522.738281 121.976562 528.195312 118.542969 533.761719 C 115.109375 539.332031 111.851562 545 108.765625 550.765625 C 105.683594 556.535156 102.777344 562.390625 100.054688 568.339844 C 97.332031 574.285156 94.792969 580.3125 92.441406 586.414062 C 90.085938 592.519531 87.925781 598.6875 85.953125 604.925781 C 83.980469 611.160156 82.203125 617.453125 80.617188 623.796875 C 79.03125 630.144531 77.644531 636.535156 76.453125 642.964844 C 75.261719 649.398438 74.269531 655.859375 73.476562 662.351562 C 72.683594 668.84375 72.09375 675.355469 71.699219 681.886719 C 71.308594 688.414062 71.121094 694.949219 71.128906 701.492188 C 71.128906 702.382812 71.171875 703.273438 71.261719 704.160156 C 71.347656 705.046875 71.476562 705.929688 71.652344 706.804688 C 71.824219 707.679688 72.039062 708.542969 72.300781 709.394531 C 72.558594 710.25 72.859375 711.089844 73.199219 711.914062 C 73.539062 712.738281 73.921875 713.542969 74.339844 714.328125 C 74.761719 715.117188 75.21875 715.878906 75.714844 716.621094 C 76.210938 717.363281 76.738281 718.078125 77.304688 718.765625 C 77.871094 719.457031 78.46875 720.117188 79.101562 720.746094 C 79.730469 721.378906 80.390625 721.976562 81.082031 722.542969 C 81.769531 723.109375 82.484375 723.636719 83.226562 724.132812 C 83.96875 724.628906 84.734375 725.085938 85.519531 725.507812 C 86.304688 725.925781 87.113281 726.308594 87.933594 726.648438 C 88.757812 726.992188 89.597656 727.289062 90.453125 727.550781 C 91.304688 727.808594 92.167969 728.023438 93.042969 728.195312 C 93.917969 728.371094 94.800781 728.5 95.6875 728.589844 C 96.574219 728.675781 97.464844 728.71875 98.355469 728.71875 L 684.265625 728.71875 C 685.160156 728.71875 686.046875 728.675781 686.9375 728.589844 C 687.824219 728.5 688.707031 728.371094 689.578125 728.195312 C 690.453125 728.023438 691.320312 727.808594 692.171875 727.550781 C 693.027344 727.289062 693.863281 726.992188 694.6875 726.648438 C 695.511719 726.308594 696.316406 725.929688 697.105469 725.507812 C 697.890625 725.085938 698.65625 724.628906 699.398438 724.132812 C 700.140625 723.636719 700.855469 723.109375 701.542969 722.542969 C 702.234375 721.976562 702.894531 721.378906 703.523438 720.746094 C 704.15625 720.117188 704.753906 719.457031 705.320312 718.769531 C 705.882812 718.078125 706.414062 717.363281 706.910156 716.621094 C 707.40625 715.878906 707.863281 715.117188 708.285156 714.328125 C 708.703125 713.542969 709.085938 712.738281 709.425781 711.914062 C 709.765625 711.089844 710.066406 710.25 710.324219 709.394531 C 710.582031 708.542969 710.800781 707.679688 710.972656 706.804688 C 711.148438 705.929688 711.277344 705.046875 711.363281 704.160156 C 711.453125 703.273438 711.496094 702.382812 711.492188 701.492188 C 711.488281 694.964844 711.285156 688.445312 710.882812 681.929688 C 710.480469 675.414062 709.878906 668.917969 709.082031 662.441406 C 708.28125 655.964844 707.285156 649.519531 706.09375 643.101562 C 704.902344 636.683594 703.515625 630.308594 701.933594 623.976562 C 700.351562 617.644531 698.578125 611.367188 696.613281 605.144531 C 694.648438 598.917969 692.5 592.761719 690.15625 586.667969 C 687.816406 580.574219 685.292969 574.558594 682.585938 568.621094 C 679.878906 562.683594 676.996094 556.832031 673.929688 551.070312 C 670.867188 545.308594 667.628906 539.644531 664.21875 534.078125 C 660.808594 528.511719 657.234375 523.058594 653.492188 517.710938 C 649.75 512.363281 645.847656 507.136719 641.785156 502.027344 C 637.722656 496.917969 633.507812 491.9375 629.144531 487.085938 C 624.777344 482.234375 620.269531 477.519531 615.617188 472.945312 C 610.964844 468.367188 606.175781 463.9375 601.25 459.652344 C 596.328125 455.367188 591.277344 451.238281 586.101562 447.261719 C 580.929688 443.285156 575.636719 439.46875 570.226562 435.816406 Z M 570.226562 435.816406 " fill-opacity="1" fill-rule="nonzero"/></svg>