<svg xmlns="http://www.w3.org/2000/svg" xmlns:xlink="http://www.w3.org/1999/xlink" width="1080" zoomAndPan="magnify" viewBox="0 0 810 809.999993" height="1080" preserveAspectRatio="xMidYMid meet" version="1.0"><defs><clipPath id="6f40531400"><path d="M 58.257812 128 L 752 128 L 752 682 L 58.257812 682 Z M 58.257812 128 " clip-rule="nonzero"/></clipPath></defs><g clip-path="url(#6f40531400)"><path fill="#545454" d="M 234.316406 128.609375 L 751.5625 128.609375 L 575.679688 304.492188 L 58.433594 304.492188 Z M 751.5625 505.5 L 575.679688 681.382812 L 58.433594 681.382812 L 158.9375 580.878906 L 580.882812 580.878906 C 582.546875 580.878906 584.148438 580.558594 585.6875 579.921875 C 587.226562 579.285156 588.585938 578.375 589.765625 577.199219 L 661.460938 505.5 Z M 751.5625 379.871094 L 575.679688 555.753906 L 58.433594 555.753906 L 158.9375 455.246094 L 580.882812 455.246094 C 582.546875 455.246094 584.148438 454.929688 585.6875 454.289062 C 587.226562 453.652344 588.585938 452.746094 589.765625 451.566406 L 661.460938 379.871094 Z M 575.679688 430.121094 L 58.433594 430.121094 L 158.9375 329.617188 L 580.882812 329.617188 C 582.546875 329.617188 584.148438 329.296875 585.6875 328.660156 C 587.226562 328.023438 588.585938 327.113281 589.765625 325.9375 L 661.460938 254.238281 L 751.5625 254.238281 Z M 575.679688 430.121094 " fill-opacity="1" fill-rule="nonzero"/></g></svg>