<svg xmlns="http://www.w3.org/2000/svg" xmlns:xlink="http://www.w3.org/1999/xlink" width="576" zoomAndPan="magnify" viewBox="0 0 432 287.999989" height="384" preserveAspectRatio="xMidYMid meet" version="1.0"><defs><clipPath id="4b0d1a57e6"><path d="M 49.296875 244.105469 L 237.957031 244.105469 L 237.957031 288 L 49.296875 288 Z M 49.296875 244.105469 " clip-rule="nonzero"/></clipPath><clipPath id="c0d13f3f87"><path d="M 143.625 244.105469 C 91.527344 244.105469 49.296875 285.246094 49.296875 336 C 49.296875 386.753906 91.527344 427.894531 143.625 427.894531 C 195.722656 427.894531 237.957031 386.753906 237.957031 336 C 237.957031 285.246094 195.722656 244.105469 143.625 244.105469 Z M 143.625 244.105469 " clip-rule="nonzero"/></clipPath><clipPath id="451ab5fd5a"><path d="M 53.796875 282.957031 L 242.457031 282.957031 L 242.457031 288 L 53.796875 288 Z M 53.796875 282.957031 " clip-rule="nonzero"/></clipPath><clipPath id="347a1f79c7"><path d="M 148.125 282.957031 C 96.027344 282.957031 53.796875 324.097656 53.796875 374.851562 C 53.796875 425.605469 96.027344 466.746094 148.125 466.746094 C 200.222656 466.746094 242.457031 425.605469 242.457031 374.851562 C 242.457031 324.097656 200.222656 282.957031 148.125 282.957031 Z M 148.125 282.957031 " clip-rule="nonzero"/></clipPath><clipPath id="235c18dcc7"><path d="M 0 239.128906 L 148.125 239.128906 L 148.125 288 L 0 288 Z M 0 239.128906 " clip-rule="nonzero"/></clipPath><clipPath id="f7e96e6fed"><path d="M 53.796875 239.128906 C 1.699219 239.128906 -40.535156 280.273438 -40.535156 331.027344 C -40.535156 381.777344 1.699219 422.921875 53.796875 422.921875 C 105.894531 422.921875 148.125 381.777344 148.125 331.027344 C 148.125 280.273438 105.894531 239.128906 53.796875 239.128906 Z M 53.796875 239.128906 " clip-rule="nonzero"/></clipPath><clipPath id="065e5134bb"><path d="M 0 232.800781 L 65.621094 232.800781 L 65.621094 288 L 0 288 Z M 0 232.800781 " clip-rule="nonzero"/></clipPath><clipPath id="a67484ef10"><path d="M -28.707031 232.800781 C -80.804688 232.800781 -123.039062 273.941406 -123.039062 324.695312 C -123.039062 375.449219 -80.804688 416.589844 -28.707031 416.589844 C 23.386719 416.589844 65.621094 375.449219 65.621094 324.695312 C 65.621094 273.941406 23.386719 232.800781 -28.707031 232.800781 Z M -28.707031 232.800781 " clip-rule="nonzero"/></clipPath><clipPath id="4c31d67da5"><path d="M 164.40625 278.261719 L 353.066406 278.261719 L 353.066406 288 L 164.40625 288 Z M 164.40625 278.261719 " clip-rule="nonzero"/></clipPath><clipPath id="336c2640c8"><path d="M 258.734375 278.261719 C 206.636719 278.261719 164.40625 319.714844 164.40625 370.851562 C 164.40625 421.988281 206.636719 463.445312 258.734375 463.445312 C 310.832031 463.445312 353.066406 421.988281 353.066406 370.851562 C 353.066406 319.714844 310.832031 278.261719 258.734375 278.261719 Z M 258.734375 278.261719 " clip-rule="nonzero"/></clipPath><clipPath id="848c003341"><path d="M 76.753906 279.652344 L 265.414062 279.652344 L 265.414062 288 L 76.753906 288 Z M 76.753906 279.652344 " clip-rule="nonzero"/></clipPath><clipPath id="a7f5ba983a"><path d="M 171.082031 279.652344 C 118.984375 279.652344 76.753906 320.796875 76.753906 371.546875 C 76.753906 422.300781 118.984375 463.445312 171.082031 463.445312 C 223.179688 463.445312 265.414062 422.300781 265.414062 371.546875 C 265.414062 320.796875 223.179688 279.652344 171.082031 279.652344 Z M 171.082031 279.652344 " clip-rule="nonzero"/></clipPath><clipPath id="cd2c9f64a5"><path d="M 258.734375 249.21875 L 432 249.21875 L 432 288 L 258.734375 288 Z M 258.734375 249.21875 " clip-rule="nonzero"/></clipPath><clipPath id="207bb3a66e"><path d="M 353.066406 249.21875 C 300.96875 249.21875 258.734375 290.359375 258.734375 341.113281 C 258.734375 391.867188 300.96875 433.007812 353.066406 433.007812 C 405.164062 433.007812 447.394531 391.867188 447.394531 341.113281 C 447.394531 290.359375 405.164062 249.21875 353.066406 249.21875 Z M 353.066406 249.21875 " clip-rule="nonzero"/></clipPath><clipPath id="5ee724def4"><path d="M 353.066406 224.347656 L 432 224.347656 L 432 288 L 353.066406 288 Z M 353.066406 224.347656 " clip-rule="nonzero"/></clipPath><clipPath id="03f55bb6e6"><path d="M 447.394531 224.347656 C 395.296875 224.347656 353.066406 265.492188 353.066406 316.242188 C 353.066406 366.996094 395.296875 408.140625 447.394531 408.140625 C 499.492188 408.140625 541.726562 366.996094 541.726562 316.242188 C 541.726562 265.492188 499.492188 224.347656 447.394531 224.347656 Z M 447.394531 224.347656 " clip-rule="nonzero"/></clipPath><clipPath id="b88a7ce665"><path d="M 117.167969 267.824219 L 305.832031 267.824219 L 305.832031 288 L 117.167969 288 Z M 117.167969 267.824219 " clip-rule="nonzero"/></clipPath><clipPath id="d4b5c9663a"><path d="M 211.5 267.824219 C 159.402344 267.824219 117.167969 308.96875 117.167969 359.722656 C 117.167969 410.472656 159.402344 451.617188 211.5 451.617188 C 263.597656 451.617188 305.832031 410.472656 305.832031 359.722656 C 305.832031 308.96875 263.597656 267.824219 211.5 267.824219 Z M 211.5 267.824219 " clip-rule="nonzero"/></clipPath><clipPath id="110f8c2eca"><path d="M 381.796875 257.320312 L 432 257.320312 L 432 288 L 381.796875 288 Z M 381.796875 257.320312 " clip-rule="nonzero"/></clipPath><clipPath id="8523424c13"><path d="M 476.125 257.320312 C 424.027344 257.320312 381.796875 298.464844 381.796875 349.21875 C 381.796875 399.96875 424.027344 441.113281 476.125 441.113281 C 528.222656 441.113281 570.457031 399.96875 570.457031 349.21875 C 570.457031 298.464844 528.222656 257.320312 476.125 257.320312 Z M 476.125 257.320312 " clip-rule="nonzero"/></clipPath></defs><rect x="-43.2" width="518.4" fill="#ffffff" y="-28.799999" height="345.599986" fill-opacity="1"/><rect x="-43.2" width="518.4" fill="#545454" y="-28.799999" height="345.599986" fill-opacity="1"/><g clip-path="url(#4b0d1a57e6)"><g clip-path="url(#c0d13f3f87)"><path fill="#a6a6a6" d="M 49.296875 244.105469 L 237.957031 244.105469 L 237.957031 427.894531 L 49.296875 427.894531 Z M 49.296875 244.105469 " fill-opacity="1" fill-rule="nonzero"/></g></g><g clip-path="url(#451ab5fd5a)"><g clip-path="url(#347a1f79c7)"><path fill="#a6a6a6" d="M 53.796875 282.957031 L 242.457031 282.957031 L 242.457031 466.746094 L 53.796875 466.746094 Z M 53.796875 282.957031 " fill-opacity="1" fill-rule="nonzero"/></g></g><g clip-path="url(#235c18dcc7)"><g clip-path="url(#f7e96e6fed)"><path fill="#a6a6a6" d="M -40.535156 239.128906 L 148.125 239.128906 L 148.125 422.921875 L -40.535156 422.921875 Z M -40.535156 239.128906 " fill-opacity="1" fill-rule="nonzero"/></g></g><g clip-path="url(#065e5134bb)"><g clip-path="url(#a67484ef10)"><path fill="#a6a6a6" d="M -123.039062 232.800781 L 65.621094 232.800781 L 65.621094 416.589844 L -123.039062 416.589844 Z M -123.039062 232.800781 " fill-opacity="1" fill-rule="nonzero"/></g></g><g clip-path="url(#4c31d67da5)"><g clip-path="url(#336c2640c8)"><path fill="#a6a6a6" d="M 164.40625 278.261719 L 353.066406 278.261719 L 353.066406 463.445312 L 164.40625 463.445312 Z M 164.40625 278.261719 " fill-opacity="1" fill-rule="nonzero"/></g></g><g clip-path="url(#848c003341)"><g clip-path="url(#a7f5ba983a)"><path fill="#a6a6a6" d="M 76.753906 279.652344 L 265.414062 279.652344 L 265.414062 463.445312 L 76.753906 463.445312 Z M 76.753906 279.652344 " fill-opacity="1" fill-rule="nonzero"/></g></g><g clip-path="url(#cd2c9f64a5)"><g clip-path="url(#207bb3a66e)"><path fill="#a6a6a6" d="M 258.734375 249.21875 L 447.394531 249.21875 L 447.394531 433.007812 L 258.734375 433.007812 Z M 258.734375 249.21875 " fill-opacity="1" fill-rule="nonzero"/></g></g><g clip-path="url(#5ee724def4)"><g clip-path="url(#03f55bb6e6)"><path fill="#a6a6a6" d="M 353.066406 224.347656 L 541.726562 224.347656 L 541.726562 408.140625 L 353.066406 408.140625 Z M 353.066406 224.347656 " fill-opacity="1" fill-rule="nonzero"/></g></g><g clip-path="url(#b88a7ce665)"><g clip-path="url(#d4b5c9663a)"><path fill="#a6a6a6" d="M 117.167969 267.824219 L 305.832031 267.824219 L 305.832031 451.617188 L 117.167969 451.617188 Z M 117.167969 267.824219 " fill-opacity="1" fill-rule="nonzero"/></g></g><g clip-path="url(#110f8c2eca)"><g clip-path="url(#8523424c13)"><path fill="#a6a6a6" d="M 381.796875 257.320312 L 570.457031 257.320312 L 570.457031 441.113281 L 381.796875 441.113281 Z M 381.796875 257.320312 " fill-opacity="1" fill-rule="nonzero"/></g></g></svg>