<svg xmlns="http://www.w3.org/2000/svg" xmlns:xlink="http://www.w3.org/1999/xlink" width="576" zoomAndPan="magnify" viewBox="0 0 432 287.999989" height="384" preserveAspectRatio="xMidYMid meet" version="1.0"><defs><clipPath id="cf2f915c5b"><path d="M 0 167.304688 L 145.042969 167.304688 L 145.042969 288 L 0 288 Z M 0 167.304688 " clip-rule="nonzero"/></clipPath><clipPath id="fad96092f1"><path d="M 50.714844 167.304688 C -1.382812 167.304688 -43.617188 208.449219 -43.617188 259.199219 C -43.617188 309.953125 -1.382812 351.09375 50.714844 351.09375 C 102.808594 351.09375 145.042969 309.953125 145.042969 259.199219 C 145.042969 208.449219 102.808594 167.304688 50.714844 167.304688 Z M 50.714844 167.304688 " clip-rule="nonzero"/></clipPath><clipPath id="fddb1ff20c"><path d="M 69.253906 230.78125 L 257.914062 230.78125 L 257.914062 288 L 69.253906 288 Z M 69.253906 230.78125 " clip-rule="nonzero"/></clipPath><clipPath id="c66df9d051"><path d="M 163.582031 230.78125 C 111.484375 230.78125 69.253906 271.925781 69.253906 322.679688 C 69.253906 373.429688 111.484375 414.574219 163.582031 414.574219 C 215.679688 414.574219 257.914062 373.429688 257.914062 322.679688 C 257.914062 271.925781 215.679688 230.78125 163.582031 230.78125 Z M 163.582031 230.78125 " clip-rule="nonzero"/></clipPath><clipPath id="5342ee51b0"><path d="M 0 75.410156 L 64.523438 75.410156 L 64.523438 259.199219 L 0 259.199219 Z M 0 75.410156 " clip-rule="nonzero"/></clipPath><clipPath id="6f9427299e"><path d="M -29.808594 75.410156 C -81.90625 75.410156 -124.140625 116.550781 -124.140625 167.304688 C -124.140625 218.058594 -81.90625 259.199219 -29.808594 259.199219 C 22.289062 259.199219 64.523438 218.058594 64.523438 167.304688 C 64.523438 116.550781 22.289062 75.410156 -29.808594 75.410156 Z M -29.808594 75.410156 " clip-rule="nonzero"/></clipPath><clipPath id="91c3d2a55b"><path d="M 58.296875 246.085938 L 246.957031 246.085938 L 246.957031 288 L 58.296875 288 Z M 58.296875 246.085938 " clip-rule="nonzero"/></clipPath><clipPath id="0a2d182de5"><path d="M 152.625 246.085938 C 100.527344 246.085938 58.296875 287.230469 58.296875 337.984375 C 58.296875 388.734375 100.527344 429.878906 152.625 429.878906 C 204.722656 429.878906 246.957031 388.734375 246.957031 337.984375 C 246.957031 287.230469 204.722656 246.085938 152.625 246.085938 Z M 152.625 246.085938 " clip-rule="nonzero"/></clipPath><clipPath id="87af102544"><path d="M 0 246.085938 L 145.042969 246.085938 L 145.042969 288 L 0 288 Z M 0 246.085938 " clip-rule="nonzero"/></clipPath><clipPath id="217eaf5d3f"><path d="M 50.714844 246.085938 C -1.382812 246.085938 -43.617188 287.230469 -43.617188 337.984375 C -43.617188 388.734375 -1.382812 429.878906 50.714844 429.878906 C 102.808594 429.878906 145.042969 388.734375 145.042969 337.984375 C 145.042969 287.230469 102.808594 246.085938 50.714844 246.085938 Z M 50.714844 246.085938 " clip-rule="nonzero"/></clipPath><clipPath id="84d8dbac91"><path d="M 0 154.191406 L 75.304688 154.191406 L 75.304688 288 L 0 288 Z M 0 154.191406 " clip-rule="nonzero"/></clipPath><clipPath id="f5d2f87a59"><path d="M -19.027344 154.191406 C -71.125 154.191406 -113.355469 195.335938 -113.355469 246.085938 C -113.355469 296.839844 -71.125 337.984375 -19.027344 337.984375 C 33.070312 337.984375 75.304688 296.839844 75.304688 246.085938 C 75.304688 195.335938 33.070312 154.191406 -19.027344 154.191406 Z M -19.027344 154.191406 " clip-rule="nonzero"/></clipPath></defs><rect x="-43.2" width="518.4" fill="#ffffff" y="-28.799999" height="345.599986" fill-opacity="1"/><rect x="-43.2" width="518.4" fill="#2c2c2c" y="-28.799999" height="345.599986" fill-opacity="1"/><g clip-path="url(#cf2f915c5b)"><g clip-path="url(#fad96092f1)"><path fill="#008000" d="M -43.617188 167.304688 L 145.042969 167.304688 L 145.042969 351.09375 L -43.617188 351.09375 Z M -43.617188 167.304688 " fill-opacity="1" fill-rule="nonzero"/></g></g><g clip-path="url(#fddb1ff20c)"><g clip-path="url(#c66df9d051)"><path fill="#008000" d="M 69.253906 230.78125 L 257.914062 230.78125 L 257.914062 414.574219 L 69.253906 414.574219 Z M 69.253906 230.78125 " fill-opacity="1" fill-rule="nonzero"/></g></g><g clip-path="url(#5342ee51b0)"><g clip-path="url(#6f9427299e)"><path fill="#008000" d="M -124.140625 75.410156 L 64.523438 75.410156 L 64.523438 259.199219 L -124.140625 259.199219 Z M -124.140625 75.410156 " fill-opacity="1" fill-rule="nonzero"/></g></g><g clip-path="url(#91c3d2a55b)"><g clip-path="url(#0a2d182de5)"><path fill="#00bf63" d="M 58.296875 246.085938 L 246.957031 246.085938 L 246.957031 429.878906 L 58.296875 429.878906 Z M 58.296875 246.085938 " fill-opacity="1" fill-rule="nonzero"/></g></g><g clip-path="url(#87af102544)"><g clip-path="url(#217eaf5d3f)"><path fill="#00bf63" d="M -43.617188 246.085938 L 145.042969 246.085938 L 145.042969 429.878906 L -43.617188 429.878906 Z M -43.617188 246.085938 " fill-opacity="1" fill-rule="nonzero"/></g></g><g clip-path="url(#84d8dbac91)"><g clip-path="url(#f5d2f87a59)"><path fill="#00bf63" d="M -113.355469 154.191406 L 75.304688 154.191406 L 75.304688 337.984375 L -113.355469 337.984375 Z M -113.355469 154.191406 " fill-opacity="1" fill-rule="nonzero"/></g></g></svg>