<svg xmlns="http://www.w3.org/2000/svg" xmlns:xlink="http://www.w3.org/1999/xlink" width="1366" zoomAndPan="magnify" viewBox="0 0 1024.5 576" height="768" preserveAspectRatio="xMidYMid meet" version="1.0"><defs><clipPath id="cfabb98912"><path d="M 0 0.140625 L 1024 0.140625 L 1024 575.859375 L 0 575.859375 Z M 0 0.140625 " clip-rule="nonzero"/></clipPath><clipPath id="a8bdac55ed"><path d="M 0 0.140625 L 826.253906 0.140625 L 826.253906 575.859375 L 0 575.859375 Z M 0 0.140625 " clip-rule="nonzero"/></clipPath><clipPath id="acc9399dcf"><path d="M 0 77.429688 L 570.625 77.429688 L 570.625 575.859375 L 0 575.859375 Z M 0 77.429688 " clip-rule="nonzero"/></clipPath></defs><g clip-path="url(#cfabb98912)"><path fill="#ffffff" d="M 0 0.140625 L 1024 0.140625 L 1024 575.859375 L 0 575.859375 Z M 0 0.140625 " fill-opacity="1" fill-rule="nonzero"/><path fill="#ffffff" d="M 0 0.140625 L 1024 0.140625 L 1024 575.859375 L 0 575.859375 Z M 0 0.140625 " fill-opacity="1" fill-rule="nonzero"/></g><g clip-path="url(#a8bdac55ed)"><path fill="#7ed957" d="M 826.082031 614.777344 C 824.179688 616.078125 822.496094 615.84375 820.867188 615.84375 C 541.203125 615.855469 261.539062 615.855469 -18.125 615.84375 C -25.757812 615.84375 -25.757812 615.824219 -25.757812 608.210938 C -25.757812 369.695312 -25.757812 131.1875 -25.730469 -107.328125 C -25.730469 -108.921875 -26.546875 -111.222656 -25.195312 -111.941406 C -23.660156 -112.769531 -21.960938 -111.019531 -20.570312 -110.019531 C -12.023438 -103.882812 -2.6875 -98.996094 6.140625 -93.3125 C 14.738281 -87.785156 23.605469 -82.597656 31.929688 -76.683594 C 37.75 -72.546875 43.597656 -68.40625 48.9375 -63.511719 C 55.710938 -57.304688 63.355469 -52.070312 70.5625 -46.328125 C 80.285156 -38.585938 88.433594 -29.269531 96.542969 -19.945312 C 100.847656 -15.003906 105.304688 -10.105469 108.882812 -4.648438 C 114.261719 3.5625 119.78125 11.699219 124.734375 20.199219 C 130.589844 30.253906 135.816406 40.667969 140.351562 51.292969 C 144.851562 61.824219 149.394531 72.351562 153.386719 83.132812 C 159.003906 98.296875 166.179688 112.867188 171.988281 127.960938 C 175.390625 136.792969 179.0625 145.5625 181.984375 154.546875 C 185.066406 163.980469 189.804688 172.683594 192.875 182.027344 C 195.808594 190.964844 200.429688 199.164062 203.558594 207.945312 C 207.890625 220.105469 213.390625 231.761719 218.488281 243.554688 C 223.589844 255.347656 229.15625 266.992188 235.15625 278.425781 C 239.21875 286.167969 243.753906 293.589844 248.222656 301.027344 C 253.148438 309.21875 258.730469 317.027344 264.726562 324.554688 C 273.777344 335.929688 283.316406 346.867188 293.574219 357.125 C 301.191406 364.738281 309.3125 371.859375 317.566406 378.796875 C 328.707031 388.148438 340.898438 396.046875 353.4375 403.234375 C 365.84375 410.34375 378.898438 416.308594 392.476562 421.078125 C 405.464844 425.632812 418.589844 429.839844 431.671875 434.066406 C 439.636719 436.628906 447.84375 438.863281 456.0625 440.789062 C 459.238281 441.527344 462.28125 442.875 465.457031 443.652344 C 480.492188 447.316406 495.792969 449.800781 510.710938 454.015625 C 515.65625 455.414062 520.871094 455.863281 525.855469 457.15625 C 533.65625 459.175781 541.484375 461.214844 549.089844 463.855469 C 557.929688 466.925781 567.148438 468.566406 575.949219 471.746094 C 591.363281 477.308594 607.265625 481.371094 622.691406 487.015625 C 632.265625 490.519531 641.574219 494.765625 651.257812 497.882812 C 663.351562 501.769531 674.675781 507.394531 686.15625 512.589844 C 697.066406 517.535156 707.800781 522.933594 718.359375 528.695312 C 733.296875 536.84375 746.945312 546.820312 760.582031 556.835938 C 766.964844 561.527344 772.839844 566.90625 779.242188 571.582031 C 796.425781 584.140625 810.890625 599.566406 826.082031 614.777344 Z M 826.082031 614.777344 " fill-opacity="1" fill-rule="nonzero"/></g><g clip-path="url(#acc9399dcf)"><path fill="#0f740c" d="M 570.628906 587 C 569.292969 587.910156 568.117188 587.746094 566.972656 587.746094 C 371.070312 587.753906 175.171875 587.753906 -20.730469 587.746094 C -26.078125 587.746094 -26.078125 587.734375 -26.078125 582.398438 C -26.078125 415.320312 -26.078125 248.246094 -26.058594 81.167969 C -26.058594 80.054688 -26.632812 78.441406 -25.683594 77.9375 C -24.609375 77.359375 -23.417969 78.582031 -22.445312 79.285156 C -16.457031 83.585938 -9.917969 87.007812 -3.734375 90.988281 C 2.289062 94.859375 8.5 98.492188 14.332031 102.636719 C 18.40625 105.535156 22.503906 108.433594 26.246094 111.863281 C 30.988281 116.210938 36.34375 119.878906 41.390625 123.898438 C 48.203125 129.324219 53.910156 135.847656 59.59375 142.378906 C 62.605469 145.84375 65.730469 149.273438 68.234375 153.097656 C 72.003906 158.847656 75.867188 164.546875 79.339844 170.503906 C 83.441406 177.542969 87.101562 184.839844 90.28125 192.28125 C 93.429688 199.660156 96.613281 207.035156 99.410156 214.585938 C 103.34375 225.207031 108.371094 235.414062 112.441406 245.988281 C 114.824219 252.171875 117.394531 258.316406 119.441406 264.613281 C 121.601562 271.21875 124.921875 277.316406 127.070312 283.859375 C 129.125 290.121094 132.363281 295.863281 134.554688 302.015625 C 137.589844 310.535156 141.441406 318.699219 145.011719 326.960938 C 148.585938 335.21875 152.484375 343.378906 156.691406 351.386719 C 159.535156 356.808594 162.710938 362.007812 165.839844 367.21875 C 169.292969 372.957031 173.203125 378.425781 177.402344 383.699219 C 183.742188 391.667969 190.425781 399.328125 197.609375 406.515625 C 202.945312 411.847656 208.632812 416.835938 214.417969 421.695312 C 222.222656 428.246094 230.761719 433.78125 239.546875 438.816406 C 248.234375 443.796875 257.378906 447.972656 266.890625 451.3125 C 275.988281 454.503906 285.179688 457.453125 294.347656 460.410156 C 299.925781 462.207031 305.675781 463.773438 311.433594 465.121094 C 313.65625 465.636719 315.785156 466.582031 318.011719 467.128906 C 328.546875 469.691406 339.261719 471.433594 349.714844 474.386719 C 353.175781 475.367188 356.832031 475.679688 360.320312 476.585938 C 365.785156 478 371.269531 479.429688 376.597656 481.28125 C 382.789062 483.429688 389.246094 484.582031 395.410156 486.804688 C 406.210938 490.703125 417.347656 493.546875 428.152344 497.5 C 434.863281 499.957031 441.378906 502.929688 448.164062 505.117188 C 456.636719 507.835938 464.570312 511.777344 472.613281 515.417969 C 480.253906 518.878906 487.773438 522.664062 495.167969 526.699219 C 505.632812 532.40625 515.191406 539.394531 524.746094 546.410156 C 529.214844 549.695312 533.332031 553.46875 537.816406 556.738281 C 549.855469 565.539062 559.984375 576.34375 570.628906 587 Z M 570.628906 587 " fill-opacity="1" fill-rule="nonzero"/></g></svg>