<svg xmlns="http://www.w3.org/2000/svg" xmlns:xlink="http://www.w3.org/1999/xlink" width="500" zoomAndPan="magnify" viewBox="0 0 375 374.999991" height="500" preserveAspectRatio="xMidYMid meet" version="1.0"><defs><clipPath id="0c33243c67"><path d="M 9.621094 9.621094 L 365.121094 9.621094 L 365.121094 365.121094 L 9.621094 365.121094 Z M 9.621094 9.621094 " clip-rule="nonzero"/></clipPath></defs><g clip-path="url(#0c33243c67)"><path fill="#077807" d="M 352.410156 215.316406 C 359.390625 215.316406 365.101562 209.605469 365.101562 202.625 L 365.101562 171.941406 C 365.101562 164.960938 359.390625 159.25 352.410156 159.25 L 339.234375 159.25 C 332.253906 159.25 324.871094 153.789062 322.8125 147.121094 L 311.570312 119.824219 C 308.269531 113.671875 309.609375 104.601562 314.539062 99.671875 L 323.867188 90.34375 C 328.800781 85.40625 328.804688 77.332031 323.867188 72.394531 L 302.171875 50.699219 C 297.234375 45.761719 289.160156 45.761719 284.222656 50.699219 L 274.894531 60.027344 C 269.960938 64.964844 260.886719 66.296875 254.738281 62.992188 L 227.445312 51.753906 C 220.773438 49.703125 215.316406 42.3125 215.316406 35.332031 L 215.316406 22.15625 C 215.316406 15.175781 209.605469 9.464844 202.625 9.464844 L 171.941406 9.464844 C 164.960938 9.464844 159.25 15.175781 159.25 22.15625 L 159.25 35.332031 C 159.25 42.3125 153.789062 49.703125 147.125 51.753906 L 119.828125 62.992188 C 113.675781 66.296875 104.609375 64.960938 99.675781 60.023438 L 90.347656 50.695312 C 85.410156 45.757812 77.335938 45.757812 72.398438 50.695312 L 50.703125 72.390625 C 45.769531 77.328125 45.769531 85.402344 50.703125 90.339844 L 60.035156 99.667969 C 64.972656 104.601562 66.304688 113.671875 63.003906 119.824219 L 51.761719 147.121094 C 49.710938 153.789062 42.320312 159.246094 35.339844 159.246094 L 22.167969 159.246094 C 15.1875 159.246094 9.476562 164.957031 9.476562 171.9375 L 9.476562 202.625 C 9.476562 209.605469 15.1875 215.316406 22.167969 215.316406 L 35.339844 215.316406 C 42.320312 215.316406 49.710938 220.773438 51.761719 227.445312 L 63.007812 254.746094 C 66.3125 260.890625 64.976562 269.964844 60.039062 274.894531 L 50.707031 284.226562 C 45.773438 289.160156 45.773438 297.234375 50.707031 302.171875 L 72.398438 323.867188 C 77.335938 328.804688 85.410156 328.800781 90.347656 323.867188 L 99.679688 314.535156 C 104.617188 309.605469 113.683594 308.265625 119.832031 311.570312 L 147.128906 322.8125 C 153.800781 324.867188 159.253906 332.25 159.253906 339.234375 L 159.253906 352.410156 C 159.253906 359.390625 164.964844 365.101562 171.945312 365.101562 L 202.628906 365.101562 C 209.609375 365.101562 215.320312 359.390625 215.320312 352.410156 L 215.320312 339.230469 C 215.320312 332.25 220.777344 324.867188 227.449219 322.808594 L 254.746094 311.570312 C 260.890625 308.265625 269.964844 309.597656 274.894531 314.535156 L 284.230469 323.867188 C 289.164062 328.804688 297.242188 328.800781 302.175781 323.867188 L 323.871094 302.171875 C 328.804688 297.238281 328.808594 289.160156 323.871094 284.222656 L 314.542969 274.894531 C 309.609375 269.960938 308.277344 260.886719 311.574219 254.738281 L 322.8125 227.445312 C 324.867188 220.773438 332.253906 215.316406 339.238281 215.316406 Z M 187.285156 260.4375 C 146.882812 260.4375 114.128906 227.683594 114.128906 187.285156 C 114.128906 146.878906 146.882812 114.125 187.285156 114.125 C 227.683594 114.125 260.441406 146.878906 260.441406 187.285156 C 260.441406 227.683594 227.683594 260.4375 187.285156 260.4375 Z M 187.285156 260.4375 " fill-opacity="1" fill-rule="nonzero"/></g></svg>